<?xml version="1.0" standalone="no"?>
<!DOCTYPE svg PUBLIC "-//W3C//DTD SVG 20010904//EN"
 "http://www.w3.org/TR/2001/REC-SVG-20010904/DTD/svg10.dtd">
<svg version="1.0" xmlns="http://www.w3.org/2000/svg"
 width="1890.000000pt" height="1417.000000pt" viewBox="0 0 1890.000000 1417.000000"
 preserveAspectRatio="xMidYMid meet">

<g transform="translate(0.000000,1417.000000) scale(0.100000,-0.100000)"
fill="#000000" stroke="none">
<path d="M13365 8791 c-369 -68 -662 -224 -916 -487 -206 -214 -341 -466 -416
-778 -30 -126 -42 -407 -24 -560 96 -812 799 -1435 1622 -1436 102 0 309 20
349 34 8 3 34 10 58 16 l42 11 0 135 0 136 -42 -34 c-102 -81 -200 -130 -288
-144 l-40 -7 0 302 0 301 163 0 162 0 -40 23 c-72 42 -133 87 -139 102 -4 11
-22 15 -76 15 l-70 0 0 202 c0 111 -7 285 -16 387 -16 186 -14 343 5 451 5 30
10 146 10 258 l1 202 73 0 72 0 44 51 c28 32 64 60 95 75 l51 23 -167 0 -168
1 0 300 0 300 28 -6 c236 -56 420 -217 576 -506 l47 -87 -33 -3 -33 -3 62 -63
c120 -122 142 -187 202 -597 6 -38 14 -93 17 -122 6 -49 11 -57 75 -117 l68
-66 208 -2 207 -3 -3 -62 c-1 -34 -13 -108 -26 -165 l-23 -103 41 -43 c70 -72
73 -72 96 5 44 150 55 240 56 443 0 164 -4 213 -23 306 -134 664 -623 1163
-1280 1305 -142 31 -467 36 -607 10z m205 -427 l0 -294 -325 0 c-179 0 -325 1
-325 3 0 13 93 177 133 235 93 135 246 269 363 318 47 20 137 43 147 37 4 -2
7 -137 7 -299z m-500 191 c0 -2 -20 -26 -45 -52 -67 -70 -155 -205 -214 -327
l-51 -106 -161 0 -160 0 15 21 c36 53 154 174 219 228 107 86 171 129 282 187
97 52 115 59 115 49z m1241 -43 c165 -84 314 -198 434 -332 27 -30 60 -67 74
-82 l25 -28 -166 0 -165 0 -51 104 c-60 123 -119 215 -202 314 -33 39 -57 72
-52 72 5 0 51 -22 103 -48z m-1333 -503 c111 -12 178 -31 228 -65 33 -23 43
-24 200 -24 l164 0 -2 -337 -3 -338 -412 -3 -413 -2 0 42 c1 113 41 379 76
505 6 21 4 22 -24 14 -74 -22 -100 -59 -126 -188 -8 -37 -19 -84 -25 -103 -26
-92 -31 -129 -37 -325 -4 -138 -2 -237 5 -289 14 -98 84 -293 116 -323 13 -13
28 -29 32 -36 4 -7 25 -23 47 -35 34 -20 38 -21 32 -5 -37 94 -81 334 -92 496
l-7 107 417 0 416 0 0 -340 0 -340 -171 0 -171 0 -37 -29 c-62 -49 -142 -81
-202 -81 -75 0 -188 26 -213 48 -65 58 -82 62 -264 62 l-170 0 -16 25 c-25 38
-93 196 -121 282 -27 82 -65 282 -65 339 l0 34 170 0 170 0 0 54 c0 30 3 61 6
70 5 14 -13 16 -170 16 l-176 0 0 38 c1 131 73 394 149 545 l46 92 164 3 c142
2 167 5 190 22 49 34 145 80 169 80 12 0 66 -5 120 -11z m2011 -191 c83 -175
136 -369 142 -513 l3 -60 -225 -3 -226 -2 -12 142 c-13 150 -47 345 -81 463
-11 38 -20 71 -20 72 0 2 84 3 186 3 l185 0 48 -102z m-2190 -1630 c52 -111
149 -261 221 -341 29 -32 51 -60 49 -61 -2 -2 -50 19 -107 47 -117 59 -249
151 -338 235 -69 65 -184 192 -184 204 0 4 71 8 158 8 l158 0 43 -92z m769
-212 l2 -299 -40 7 c-158 25 -360 176 -485 361 -38 56 -125 216 -125 229 0 4
145 5 323 4 l322 -3 3 -299z"/>
<path d="M14010 7170 l0 -70 35 0 35 0 0 70 0 70 -35 0 -35 0 0 -70z"/>
<path d="M14342 7074 l-22 -15 0 -759 0 -759 22 -15 c47 -33 66 -23 195 106
77 77 126 119 132 113 5 -6 48 -98 96 -205 82 -182 118 -240 149 -240 19 0
328 140 349 158 27 24 20 63 -29 169 -58 124 -154 335 -154 340 0 2 87 3 193
3 182 0 195 1 212 20 35 39 24 77 -41 138 -131 124 -227 214 -369 347 -188
176 -318 298 -325 305 -3 3 -39 37 -80 75 -42 39 -115 107 -162 153 -93 87
-120 99 -166 66z m208 -304 c9 -8 52 -49 96 -90 43 -41 115 -108 159 -150 115
-108 363 -340 410 -383 l40 -36 -151 -1 c-138 0 -154 -2 -178 -21 -17 -14 -26
-30 -26 -49 0 -16 47 -132 105 -258 58 -126 105 -232 105 -236 0 -6 -143 -76
-156 -76 -2 0 -4 4 -4 9 0 5 -22 55 -49 112 -27 57 -72 156 -100 219 -29 63
-59 121 -68 128 -9 6 -31 12 -48 12 -25 0 -46 -16 -125 -95 -52 -52 -97 -95
-100 -95 -3 0 -4 246 -2 547 l2 547 37 -35 c20 -19 44 -41 53 -49z"/>
</g>
</svg>
